{"title":"Raajneeti (2010) 1/5 DVD5 Scr Rip Xvid AC3 [Tikris]","uid":5611614,"size":933972692,"categoryP":"video","categoryS":"movies","magnet":"?xt=urn:btih:89a0884426237cfceeb82be698dfc1bbf89522e7&amp;dn=Raajneeti+%282010%29+1%2F5+DVD5+Scr+Rip+Xvid+AC3+%5BTikris%5D&amp;tr=udp%3A%2F%2Ftracker.openbittorrent.com%3A80&amp;tr=udp%3A%2F%2Fopen.demonii.com%3A1337&amp;tr=udp%3A%2F%2Ftracker.coppersurfer.tk%3A6969&amp;tr=udp%3A%2F%2Fexodus.desync.com%3A6969","seeders":0,"leechers":0,"uploader":"luvwithromio","files":-1,"time":1275897272,"description":"Format                           : AVI\nFormat/Info                      : Audio Video Interleave\nFile size                        : 891 MiB\nDuration                         : 2h 40mn\nOverall bit rate                 : 776 Kbps\n\nVideo\nID                               : 0\nFormat                           : MPEG-4 Visual\nFormat profile                   : Advanced Simple@L5\nFormat settings, BVOP            : Yes\nFormat settings, QPel            : No\nFormat settings, GMC             : No warppoints\nFormat settings, Matrix          : Default (H.263)\nCodec ID                         : XVID\nCodec ID/Hint                    : XviD\nDuration                         : 2h 40mn\nBit rate                         : 637 Kbps\nWidth                            : 640 pixels\nHeight                           : 272 pixels\nDisplay aspect ratio             : 2.35:1\nFrame rate                       : 23.976 fps\nResolution                       : 8 bits\nColorimetry                      : 4:2:0\nScan type                        : Progressive\nBits/(Pixel*Frame)               : 0.153\nStream size                      : 731 MiB (82%)\nWriting library                  : XviD 1.1.2 (UTC 2006-11-01)\n\nAudio\nID                               : 1\nFormat                           : AC-3\nFormat/Info                      : Audio Coding 3\nFormat_Settings_ModeExtension    : CM (complete main)\nCodec ID                         : 2000\nDuration                         : 2h 40mn\nBit rate mode                    : Constant\nBit rate                         : 128 Kbps\nChannel(s)                       : 3 channels\nChannel positions                : Front: L C R\nSampling rate                    : 48.0 KHz\nResolution                       : 16 bits\nStream size                      : 147 MiB (16%)\nAlignment                        : Aligned on interleaves\nInterleave, duration             : 32 ms (0.77 video frame)","torrent":{"xt":"urn:btih:89a0884426237cfceeb82be698dfc1bbf89522e7","amp;dn":"Raajneeti+%282010%29+1%2F5+DVD5+Scr+Rip+Xvid+AC3+%5BTikris%5D","amp;tr":["udp%3A%2F%2Ftracker.openbittorrent.com%3A80","udp%3A%2F%2Fopen.demonii.com%3A1337","udp%3A%2F%2Ftracker.coppersurfer.tk%3A6969","udp%3A%2F%2Fexodus.desync.com%3A6969"],"infoHash":"89a0884426237cfceeb82be698dfc1bbf89522e7","infoHashBuffer":{"type":"Buffer","data":[137,160,136,68,38,35,124,252,238,184,43,230,152,223,193,187,248,149,34,231]},"announce":[],"urlList":[]}}